<svg xmlns="http://www.w3.org/2000/svg" viewBox="0 0 512 512" role="img" aria-label="DigiBook icon">
  <defs>
    <linearGradient id="screen" x1="0" y1="0" x2="1" y2="1">
      <stop offset="0%" stop-color="#2ca8d9"/>
      <stop offset="100%" stop-color="#77d1cf"/>
    </linearGradient>
  </defs>
  <rect x="20" y="20" width="472" height="380" rx="38" fill="url(#screen)" stroke="#0a2d88" stroke-width="20"/>
  <path d="M258 20h234v380H349c-94 0-160-75-160-170S221 62 258 20z" fill="#8be0dd" opacity="0.55"/>
  <rect x="20" y="332" width="472" height="68" fill="#9eb6f0" opacity="0.85"/>
  <path d="M196 400h120v82c0 14-11 26-26 26h-68c-14 0-26-11-26-26z" fill="#8fa8e3"/>
  <rect x="132" y="484" width="248" height="24" rx="12" fill="#0a2d88"/>

  <rect x="54" y="84" width="86" height="208" rx="10" fill="#0a2d88"/>
  <rect x="64" y="104" width="66" height="28" fill="#ef6d93"/>
  <rect x="64" y="132" width="66" height="20" fill="#f4f6fb"/>
  <rect x="64" y="152" width="66" height="20" fill="#7f9fe0"/>
  <rect x="64" y="172" width="66" height="20" fill="#f4f6fb"/>
  <rect x="64" y="192" width="66" height="20" fill="#7f9fe0"/>
  <rect x="64" y="212" width="66" height="20" fill="#f4f6fb"/>
  <rect x="64" y="232" width="66" height="20" fill="#7f9fe0"/>
  <rect x="64" y="252" width="66" height="30" fill="#9fb7ec"/>

  <rect x="175" y="126" width="104" height="104" rx="10" fill="#f0c44e" stroke="#0a2d88" stroke-width="18"/>
  <circle cx="270" cy="223" r="56" fill="#b79aef" stroke="#0a2d88" stroke-width="18"/>

  <rect x="370" y="92" width="86" height="86" fill="#f3f3f3"/>
  <rect x="370" y="224" width="86" height="86" fill="#f3f3f3"/>
</svg>
